HIERARCHY
ROOT joint_0
{
	OFFSET 0.000000 0.000000 0.000000
	CHANNELS 6 Xposition Yposition Zposition Zrotation Yrotation Xrotation 
	JOINT joint_1
	{
		OFFSET 0.511002 1.944000 108.288940
		CHANNELS 3 Zrotation Yrotation Xrotation
		JOINT joint_2
		{
			OFFSET -9.074005 1.512993 98.440063
			CHANNELS 3 Zrotation Yrotation Xrotation
			JOINT joint_3
			{
				OFFSET -8.590996 1.815002 98.366943
				CHANNELS 3 Zrotation Yrotation Xrotation
				JOINT joint_4
				{
					OFFSET 2.489998 3.531998 136.462036
					CHANNELS 3 Zrotation Yrotation Xrotation
					JOINT joint_5
					{
						OFFSET 22.708000 2.955002 80.357056
						CHANNELS 3 Zrotation Yrotation Xrotation
						End Site
						{
							OFFSET 0.000000 0.000000 0.000000
						}
					}
				}
				JOINT joint_6
				{
					OFFSET 2.860001 -27.684998 77.234009
					CHANNELS 3 Zrotation Yrotation Xrotation
					JOINT joint_7
					{
						OFFSET 5.449997 -131.244003 -18.851929
						CHANNELS 3 Zrotation Yrotation Xrotation
						JOINT joint_8
						{
							OFFSET 35.757000 -24.661995 -264.074097
							CHANNELS 3 Zrotation Yrotation Xrotation
							JOINT joint_9
							{
								OFFSET 49.392001 -1.747002 -239.960938
								CHANNELS 3 Zrotation Yrotation Xrotation
								End Site
								{
									OFFSET 0.000000 0.000000 0.000000
								}
							}
						}
					}
				}
				JOINT joint_10
				{
					OFFSET -0.127998 31.625000 75.753052
					CHANNELS 3 Zrotation Yrotation Xrotation
					JOINT joint_11
					{
						OFFSET -5.618004 131.132996 -19.557007
						CHANNELS 3 Zrotation Yrotation Xrotation
						JOINT joint_12
						{
							OFFSET 46.488998 30.127991 -261.826050
							CHANNELS 3 Zrotation Yrotation Xrotation
							JOINT joint_13
							{
								OFFSET 66.021003 0.474030 -235.934937
								CHANNELS 3 Zrotation Yrotation Xrotation
								End Site
								{
									OFFSET 0.000000 0.000000 0.000000
								}
							}
						}
					}
				}
			}
		}
	}
	JOINT joint_14
	{
		OFFSET 15.887001 -78.871004 -94.561035
		CHANNELS 3 Zrotation Yrotation Xrotation
		JOINT joint_15
		{
			OFFSET -4.133003 6.714001 -473.615967
			CHANNELS 3 Zrotation Yrotation Xrotation
			JOINT joint_16
			{
				OFFSET -19.541000 5.340000 -399.613007
				CHANNELS 3 Zrotation Yrotation Xrotation
				JOINT joint_17
				{
					OFFSET 164.317001 41.657999 -73.195000
					CHANNELS 3 Zrotation Yrotation Xrotation
					End Site
					{
						OFFSET 0.000000 0.000000 0.000000
					}
				}
			}
		}
	}
	JOINT joint_18
	{
		OFFSET 6.513000 77.960991 -96.406982
		CHANNELS 3 Zrotation Yrotation Xrotation
		JOINT joint_19
		{
			OFFSET -10.660004 -8.518997 -473.485016
			CHANNELS 3 Zrotation Yrotation Xrotation
			JOINT joint_20
			{
				OFFSET -36.967995 -11.098999 -398.260010
				CHANNELS 3 Zrotation Yrotation Xrotation
				JOINT joint_21
				{
					OFFSET 166.067997 30.363998 -74.785000
					CHANNELS 3 Zrotation Yrotation Xrotation
					End Site
					{
						OFFSET 0.000000 0.000000 0.000000
					}
				}
			}
		}
	}
}
MOTION
Frames: 12
Frame Time: 0.016667
-2759.292480 924.012573 1060.581055 -0.571339 3.368489 -0.250433 -0.555782 -3.000475 -0.591338 -0.541319 0.367387 0.127033 -0.538652 -0.668647 -0.055092 0.106693 -2.478845 -0.025421 0.000000 0.000000 0.000000 -1.005515 1.217088 -0.560644 0.281689 1.093562 0.840472 -0.351001 4.209604 -1.615194 0.000000 0.000000 0.000000 -4.307848 2.450176 -0.934019 0.600153 3.271312 1.060885 0.492108 1.303687 1.711391 0.000000 0.000000 0.000000 -0.499243 -1.946163 -5.080360 -0.569223 -1.443109 0.219925 -0.522275 0.314958 -0.309722 0.000000 0.000000 0.000000 -1.882269 -2.567510 5.215788 -1.724060 -3.523225 -0.842741 -1.879231 3.122623 -1.412148 0.000000 0.000000 0.000000 
-2759.197510 924.026855 1060.560059 -0.598815 3.370790 -0.256967 -0.552365 -3.012618 -0.585159 -0.538648 0.368752 0.126031 -0.535772 -0.671354 -0.054697 0.106600 -2.468851 -0.026361 0.000000 0.000000 0.000000 -1.006555 1.225007 -0.557976 0.282177 1.101629 0.851513 -0.352081 4.209012 -1.620883 0.000000 0.000000 0.000000 -4.313723 2.455084 -0.927260 0.597069 3.275800 1.048136 0.490049 1.309457 1.703802 0.000000 0.000000 0.000000 -0.488063 -1.949506 -5.075260 -0.557929 -1.439571 0.218107 -0.511278 0.317552 -0.305539 0.000000 0.000000 0.000000 -1.867602 -2.563699 5.222628 -1.709315 -3.517861 -0.845111 -1.865073 3.121739 -1.405646 0.000000 0.000000 0.000000 
-2759.081055 924.038208 1060.552002 -0.628467 3.376136 -0.263019 -0.548492 -3.030020 -0.580025 -0.535524 0.370682 0.124947 -0.532389 -0.674760 -0.054072 0.105978 -2.459812 -0.025268 0.000000 0.000000 0.000000 -1.007812 1.235042 -0.551212 0.282364 1.111503 0.858921 -0.352691 4.210331 -1.624286 0.000000 0.000000 0.000000 -4.319787 2.461857 -0.923627 0.594555 3.282507 1.037612 0.487584 1.314475 1.694803 0.000000 0.000000 0.000000 -0.475689 -1.953813 -5.070034 -0.545468 -1.439309 0.214757 -0.499124 0.322371 -0.301411 0.000000 0.000000 0.000000 -1.852128 -2.561406 5.228911 -1.693820 -3.512514 -0.846994 -1.850116 3.117320 -1.398139 0.000000 0.000000 0.000000 
-2758.939209 924.057007 1060.546997 -0.658363 3.381513 -0.267264 -0.544979 -3.046341 -0.577060 -0.532514 0.372712 0.124186 -0.529200 -0.677058 -0.053835 0.104932 -2.456643 -0.021823 0.000000 0.000000 0.000000 -1.009144 1.246309 -0.541476 0.282037 1.122414 0.863006 -0.352958 4.210422 -1.626031 0.000000 0.000000 0.000000 -4.323158 2.468427 -0.919790 0.591952 3.288576 1.026858 0.484988 1.318739 1.685375 0.000000 0.000000 0.000000 -0.463335 -1.956562 -5.067913 -0.533121 -1.439329 0.212839 -0.486997 0.327670 -0.297415 0.000000 0.000000 0.000000 -1.836034 -2.557197 5.233094 -1.677655 -3.507818 -0.849663 -1.834598 3.111519 -1.390126 0.000000 0.000000 0.000000 
-2758.778564 924.090759 1060.537964 -0.690109 3.384188 -0.270178 -0.542011 -3.055191 -0.574119 -0.529924 0.373527 0.122898 -0.526359 -0.678848 -0.053011 0.104441 -2.462839 -0.018973 0.000000 0.000000 0.000000 -1.007053 1.258403 -0.531161 0.281046 1.134564 0.863354 -0.352739 4.207984 -1.625390 0.000000 0.000000 0.000000 -4.321065 2.474702 -0.913755 0.588710 3.293142 1.011557 0.482584 1.320438 1.676706 0.000000 0.000000 0.000000 -0.450324 -1.956285 -5.070176 -0.520245 -1.437452 0.214575 -0.474252 0.330622 -0.292552 0.000000 0.000000 0.000000 -1.819144 -2.548155 5.234789 -1.660600 -3.504007 -0.852492 -1.818255 3.103842 -1.381400 0.000000 0.000000 0.000000 
-2758.592773 924.132935 1060.531006 -0.721932 3.387288 -0.271162 -0.539472 -3.063482 -0.573555 -0.527469 0.374940 0.122383 -0.523757 -0.680716 -0.052706 0.103762 -2.473528 -0.014798 0.000000 0.000000 0.000000 -1.004485 1.272223 -0.518574 0.279550 1.148378 0.861005 -0.352230 4.204302 -1.623339 0.000000 0.000000 0.000000 -4.316339 2.481301 -0.907371 0.585396 3.297572 0.995322 0.480127 1.320862 1.667897 0.000000 0.000000 0.000000 -0.437424 -1.954924 -5.075801 -0.507561 -1.435696 0.217869 -0.461622 0.333316 -0.287674 0.000000 0.000000 0.000000 -1.801820 -2.537615 5.234015 -1.643092 -3.500881 -0.855685 -1.801517 3.094455 -1.372184 0.000000 0.000000 0.000000 
-2758.364258 924.168274 1060.534058 -0.755153 3.395505 -0.268312 -0.536471 -3.078558 -0.581392 -0.523711 0.376809 0.124705 -0.520249 -0.683732 -0.054313 0.102597 -2.483009 -0.009094 0.000000 0.000000 0.000000 -1.004007 1.288703 -0.500942 0.278108 1.164412 0.860363 -0.352764 4.204204 -1.626475 0.000000 0.000000 0.000000 -4.309889 2.489332 -0.902043 0.583033 3.303614 0.984828 0.477422 1.322686 1.658207 0.000000 0.000000 0.000000 -0.423938 -1.956770 -5.083583 -0.494278 -1.435176 0.218051 -0.448402 0.341775 -0.283998 0.000000 0.000000 0.000000 -1.782836 -2.529863 5.230427 -1.623993 -3.498104 -0.860794 -1.783428 3.084179 -1.362199 0.000000 0.000000 0.000000 
-2758.100830 924.187866 1060.541992 -0.782891 3.418938 -0.262970 -0.533158 -3.113214 -0.597449 -0.519137 0.378054 0.128482 -0.516184 -0.688892 -0.057626 0.100481 -2.487027 -0.000897 0.000000 0.000000 0.000000 -1.012117 1.310018 -0.481052 0.277662 1.184265 0.870379 -0.355873 4.211695 -1.642386 0.000000 0.000000 0.000000 -4.305092 2.499594 -0.896018 0.581522 3.312484 0.980212 0.474125 1.327284 1.646414 0.000000 0.000000 0.000000 -0.412408 -1.971419 -5.089021 -0.482648 -1.438245 0.210942 -0.436931 0.358002 -0.283059 0.000000 0.000000 0.000000 -1.762357 -2.537737 5.226838 -1.603672 -3.495030 -0.868434 -1.764361 3.074495 -1.351877 0.000000 0.000000 0.000000 
-2757.794678 924.201599 1060.560059 -0.811272 3.447930 -0.253849 -0.529844 -3.155430 -0.620632 -0.514025 0.380127 0.133069 -0.511708 -0.695160 -0.061956 0.097721 -2.489972 0.009412 0.000000 0.000000 0.000000 -1.021310 1.333925 -0.455992 0.277274 1.206390 0.881576 -0.359870 4.223036 -1.662731 0.000000 0.000000 0.000000 -4.297219 2.511450 -0.891324 0.581055 3.322944 0.981173 0.470733 1.332685 1.634294 0.000000 0.000000 0.000000 -0.400647 -1.989516 -5.096438 -0.470759 -1.442736 0.200345 -0.425239 0.379291 -0.283305 0.000000 0.000000 0.000000 -1.740336 -2.548823 5.220378 -1.581872 -3.492658 -0.877952 -1.744061 3.064022 -1.340857 0.000000 0.000000 0.000000 
-2757.399658 924.230042 1060.600952 -0.859043 3.456146 -0.235642 -0.523477 -3.171230 -0.652620 -0.504489 0.379011 0.139290 -0.503268 -0.694650 -0.067763 0.095409 -2.504093 0.019863 0.000000 0.000000 0.000000 -1.024070 1.355122 -0.420381 0.275338 1.225861 0.877126 -0.361654 4.229727 -1.672189 0.000000 0.000000 0.000000 -4.284556 2.522716 -0.893073 0.582324 3.333031 0.991088 0.467462 1.336148 1.622623 0.000000 0.000000 0.000000 -0.381740 -1.983775 -5.117970 -0.452457 -1.444309 0.194031 -0.407096 0.400293 -0.280640 0.000000 0.000000 0.000000 -1.717290 -2.528012 5.201889 -1.558684 -3.491641 -0.887522 -1.722430 3.042363 -1.327206 0.000000 0.000000 0.000000 
-2756.963379 924.258484 1060.692017 -0.918869 3.431944 -0.200696 -0.515782 -3.154402 -0.703273 -0.491783 0.378456 0.143892 -0.491560 -0.685116 -0.072326 0.092140 -2.527717 0.035249 0.000000 0.000000 0.000000 -1.010241 1.370772 -0.363355 0.270719 1.240616 0.847892 -0.360513 4.229232 -1.667005 0.000000 0.000000 0.000000 -4.271528 2.528219 -0.905386 0.586573 3.338796 1.014767 0.467062 1.339545 1.620975 0.000000 0.000000 0.000000 -0.358275 -1.944573 -5.159897 -0.430587 -1.441352 0.191067 -0.385223 0.426058 -0.277542 0.000000 0.000000 0.000000 -1.699711 -2.466536 5.165894 -1.540473 -3.491323 -0.899977 -1.705829 3.007615 -1.313428 0.000000 0.000000 0.000000 
-2756.437988 924.300598 1060.806030 -0.997892 3.387002 -0.156431 -0.505426 -3.111139 -0.763627 -0.475004 0.374952 0.150149 -0.476122 -0.669409 -0.077154 0.089134 -2.562196 0.051414 0.000000 0.000000 0.000000 -0.989293 1.383807 -0.296257 0.264546 1.252929 0.802826 -0.357097 4.224328 -1.650608 0.000000 0.000000 0.000000 -4.252778 2.533391 -0.924814 0.592613 3.344354 1.047614 0.466661 1.340643 1.619353 0.000000 0.000000 0.000000 -0.327909 -1.881426 -5.215923 -0.402584 -1.435636 0.192140 -0.357180 0.451661 -0.271687 0.000000 0.000000 0.000000 -1.681329 -2.372924 5.117686 -1.521093 -3.493119 -0.912357 -1.688135 2.962421 -1.297259 0.000000 0.000000 0.000000 
